# xmcd CD database file
#
# Track frame offsets:
#	150
#	36705
#	83310
#	123435
#	150810
#
# Disc length: 2319 seconds
#
# Revision: 2
# Processed by: cddbd v1.5.1PL0 Copyright (c) Steve Scherf et al.
# Submitted via: CDex 1.51
#
DISCID=2d090d05
DTITLE=Tina Brooks - Back To The Tracks
DYEAR=1960
DGENRE=Jazz
TTITLE0=Back To The Tracks
TTITLE1=Street Singer
TTITLE2=The Blues And I
TTITLE3=For Heaven's Sake
TTITLE4=The Ruby And The Pearl
EXTD=YEAR: 1960
EXTT0=
EXTT1=
EXTT2=
EXTT3=
EXTT4=
PLAYORDER=
